<svg height="512pt" viewBox="-15 0 512 512" width="512pt" xmlns="http://www.w3.org/2000/svg"><path d="m138.421875 504.5h-37.113281v-56.261719c0-22.375 18.128906-40.503906 40.503906-40.503906h39.3125zm0 0" fill="#52b2de"/><path d="m300.605469 407.734375h39.316406c22.375 0 40.5 18.128906 40.5 40.503906v56.261719h-37.113281zm0 0" fill="#52b2de"/><path d="m336.402344 462.648438c-6.773438-20.136719-18.988282-41.0625-35.796875-54.914063-1.546875-1.28125-3.148438-2.507813-4.777344-3.660156h-109.925781c-1.628906 1.152343-3.226563 2.371093-4.777344 3.660156-16.800781 13.839844-29.019531 34.777344-35.796875 54.914063-4.515625 13.429687-6.902344 27.601562-6.902344 41.851562h204.882813c0-14.25-2.390625-28.421875-6.90625-41.851562zm0 0" fill="#e8e8e8"/><path d="m203.125 407.734375c1.550781-1.289063 3.148438-2.507813 4.777344-3.65625h-22c-1.628906 1.148437-3.226563 2.367187-4.777344 3.65625-16.800781 13.839844-29.019531 34.777344-35.796875 54.914063-4.515625 13.429687-6.90625 27.601562-6.90625 41.851562h22c0-14.25 2.390625-28.421875 6.90625-41.851562 6.777344-20.136719 18.996094-41.074219 35.796875-54.914063zm0 0" fill="#d6d6d6"/><path d="m278.335938 447.292969h-74.941407c-10.394531 0-18.824219 8.425781-18.824219 18.820312v38.386719h112.585938v-38.386719c0-10.394531-8.425781-18.820312-18.820312-18.820312zm0 0" fill="#94ddff"/><path d="m223.394531 447.292969h-20c-10.394531 0-18.820312 8.425781-18.820312 18.820312v38.386719h20v-38.386719c0-10.394531 8.425781-18.820312 18.820312-18.820312zm0 0" fill="#52b2de"/><path d="m443.730469 53.964844-17.488281 15.324218v155.625c0 9.65625 7.824218 17.488282 17.488281 17.488282 9.664062 0 17.488281-7.832032 17.488281-17.488282v-155.625zm0 0" fill="#394048"/><path d="m54.535156 163.675781c-25.976562 0-47.035156 21.058594-47.035156 47.035157v28.410156c0 25.976562 21.058594 47.035156 47.035156 47.035156h17.441406v-122.480469zm0 0" fill="#52b2de"/><path d="m427.191406 163.675781c25.980469 0 47.039063 21.058594 47.039063 47.035157v28.410156c0 25.976562-21.058594 47.035156-47.039063 47.035156h-17.4375v-122.480469zm0 0" fill="#52b2de"/><path d="m297.15625 35.53125c81.816406 24.574219 144.835938 100.664062 144.835938 189.382812 0 109.199219-90.039063 197.710938-201.125 197.710938-111.078126 0-201.128907-88.511719-201.128907-197.710938 0-88.71875 63.019531-164.808593 144.835938-189.382812zm0 0" fill="#e8e8e8"/><path d="m321.476562 122.738281h-161.222656c-38.816406 0-70.285156 31.46875-70.285156 70.289063v63.777344c0 38.816406 31.46875 70.285156 70.285156 70.285156h161.222656c38.820313 0 70.289063-31.46875 70.289063-70.285156v-63.777344c0-38.820313-31.46875-70.289063-70.289063-70.289063zm0 0" fill="#394048"/><path d="m160.253906 292.113281c-19.46875 0-35.308594-15.839843-35.308594-35.308593v-63.777344c0-19.46875 15.839844-35.3125 35.308594-35.3125h161.222656c19.472657 0 35.3125 15.84375 35.3125 35.3125v63.777344c0 19.46875-15.839843 35.308593-35.3125 35.308593zm0 0" fill="#f5cdb6"/><path d="m321.476562 157.714844h-161.222656c-19.46875 0-35.308594 15.84375-35.308594 35.3125v20c0-19.46875 15.839844-35.3125 35.308594-35.3125h161.222656c19.472657 0 35.3125 15.84375 35.3125 35.3125v-20c0-19.46875-15.839843-35.3125-35.3125-35.3125zm0 0" fill="#e2b3a3"/><path d="m324.464844 250.140625h-19.550782c-4.144531 0-7.5-3.359375-7.5-7.5s3.355469-7.5 7.5-7.5h19.550782c4.140625 0 7.5 3.359375 7.5 7.5s-3.359375 7.5-7.5 7.5zm0 0" fill="#e98e8f"/><path d="m176.816406 250.140625h-19.550781c-4.140625 0-7.5-3.359375-7.5-7.5s3.359375-7.5 7.5-7.5h19.550781c4.144532 0 7.5 3.359375 7.5 7.5s-3.355468 7.5-7.5 7.5zm0 0" fill="#e98e8f"/><path d="m240.863281 422.625c3.667969 0 7.320313-.101562 10.980469-.296875 1.34375-.070313 2.683594-.152344 4.019531-.25-104.066406-7.542969-186.125-92.925781-186.125-197.164063 0-88.71875 63.019531-164.808593 144.835938-189.382812h-30c-34.339844 10.316406-65.722657 29.878906-90.375 55.882812-33.472657 35.3125-54.460938 82.304688-54.460938 133.5 0 91.003907 65.917969 171.660157 154.433594 192.355469 15.292969 3.574219 30.992187 5.355469 46.691406 5.355469zm0 0" fill="#d6d6d6"/><path d="m297.15625 35.53125v87.210938h-112.582031v-87.210938c18.007812-5.40625 36.933593-8.324219 56.292969-8.324219 19.355468 0 38.28125 2.917969 56.289062 8.324219zm0 0" fill="#52b2de"/><path d="m184.574219 35.53125v11.695312c9.640625-4.667968 19.667969-8.59375 30-11.695312 13.324219-4 27.15625-6.636719 41.292969-7.734375-2.441407-.191406-4.890626-.335937-7.351563-.433594-.046875-.003906-.09375-.007812-.140625-.007812-9.695312-.398438-19.4375-.03125-29.078125 1.058593-11.761719 1.328126-23.390625 3.714844-34.722656 7.117188zm0 0" fill="#49a0c7"/><path d="m461.21875 24.988281v44.300781h-34.976562v-44.300781c0-9.664062 7.824218-17.488281 17.488281-17.488281 9.664062 0 17.488281 7.824219 17.488281 17.488281zm0 0" fill="#52b2de"/><path d="m314.6875 229.042969c4.144531 0 7.5-3.359375 7.5-7.5v-14.355469c0-4.140625-3.355469-7.5-7.5-7.5-4.140625 0-7.5 3.359375-7.5 7.5v14.355469c0 4.140625 3.359375 7.5 7.5 7.5zm0 0"/><path d="m159.539062 221.542969c0 4.140625 3.359376 7.5 7.5 7.5 4.144532 0 7.5-3.359375 7.5-7.5v-14.355469c0-4.140625-3.355468-7.5-7.5-7.5-4.140624 0-7.5 3.359375-7.5 7.5zm0 0"/><path d="m240.863281 249.328125c7.3125 0 14.183594-3.0625 18.851563-8.402344 2.726562-3.121093 2.410156-7.859375-.710938-10.585937-3.117187-2.726563-7.855468-2.40625-10.582031.710937-1.820313 2.082031-4.574219 3.277344-7.558594 3.277344-2.980469 0-5.734375-1.195313-7.554687-3.277344-2.726563-3.117187-7.464844-3.4375-10.582032-.710937-3.121093 2.726562-3.4375 7.464844-.710937 10.582031 4.667969 5.34375 11.539063 8.40625 18.847656 8.40625zm0 0"/><path d="m117.441406 193.027344v63.773437c0 23.605469 19.207032 42.8125 42.8125 42.8125h161.222656c23.605469 0 42.8125-19.207031 42.8125-42.8125v-63.773437c0-23.605469-19.207031-42.8125-42.8125-42.8125h-161.222656c-23.605468 0-42.8125 19.207031-42.8125 42.8125zm231.847656 0v63.773437c0 15.335938-12.476562 27.8125-27.8125 27.8125h-161.222656c-15.335937 0-27.8125-12.476562-27.8125-27.8125v-63.773437c0-15.335938 12.476563-27.8125 27.8125-27.8125h161.222656c15.335938 0 27.8125 12.476562 27.8125 27.8125zm0 0"/><path d="m230.703125 475.894531c0 4.785157-3.875 8.664063-8.660156 8.664063-4.78125 0-8.660157-3.878906-8.660157-8.664063 0-4.78125 3.878907-8.660156 8.660157-8.660156 4.785156 0 8.660156 3.878906 8.660156 8.660156zm0 0"/><path d="m268.347656 475.894531c0 4.785157-3.878906 8.664063-8.660156 8.664063-4.785156 0-8.664062-3.878906-8.664062-8.664063 0-4.78125 3.878906-8.660156 8.664062-8.660156 4.78125 0 8.660156 3.878906 8.660156 8.660156zm0 0"/><path d="m0 239.121094c0 26.332031 18.585938 48.539062 43.949219 53.5 8.089843 22.773437 20.230469 44.140625 36.019531 62.933594 2.648438 3.148437 7.402344 3.574218 10.566406.917968 3.171875-2.664062 3.582032-7.398437.917969-10.570312-56.253906-66.957032-57.863281-166.410156-4.074219-235.109375 23.132813-29.546875 54.695313-52.320313 89.691406-64.894531v69.339843h-16.816406c-42.890625 0-77.789062 34.898438-77.789062 77.789063v63.777344c0 42.890624 34.898437 77.785156 77.789062 77.785156h161.222656c42.890626 0 77.789063-34.894532 77.789063-77.785156v-63.777344c0-42.890625-34.898437-77.789063-77.789063-77.789063h-16.820312v-69.347656c17.371094 6.226563 33.839844 14.914063 49.074219 25.898437 3.359375 2.425782 8.046875 1.664063 10.472656-1.695312 2.421875-3.359375 1.664063-8.046875-1.695313-10.46875-19.390624-13.984375-40.652343-24.507812-63.199218-31.277344-38.191406-11.464844-78.691406-11.464844-116.894532 0-41.765624 12.546875-79.710937 38.539063-106.84375 73.199219-13.492187 17.230469-23.949218 35.925781-31.210937 55.582031-25.609375 4.785156-44.359375 27.007813-44.359375 53.582032zm384.265625-46.09375v63.773437c0 34.621094-28.167969 62.789063-62.789063 62.789063h-161.222656c-34.621094 0-62.789062-28.167969-62.789062-62.789063v-63.773437c0-34.621094 28.167968-62.789063 62.789062-62.789063h161.222656c34.621094 0 62.789063 28.167969 62.789063 62.789063zm-94.609375-151.832032v74.042969h-97.585938v-74.042969c32.023438-8.613281 65.566407-8.613281 97.585938 0zm-274.65625 169.515626c0-16.269532 9.691406-30.292969 23.882812-36.347657-3.804687 14.203125-5.996093 28.8125-6.515624 43.652344-.664063 19.078125 1.4375 38.683594 6.230468 57.316406-14.023437-6.140625-23.597656-20.113281-23.597656-36.210937zm0 0"/><path d="m468.71875 24.988281c0-13.777343-11.210938-24.988281-24.988281-24.988281-13.78125 0-24.988281 11.210938-24.988281 24.988281v94.460938c-9.066407-14.46875-19.945313-27.867188-32.542969-40.019531-2.980469-2.878907-7.726563-2.792969-10.601563.1875-2.875 2.980468-2.792968 7.730468.1875 10.605468 46.167969 44.546875 67.960938 109.730469 54.773438 172.929688-.007813.042968-.015625.082031-.023438.121094-17.125 81.839843-87.929687 144.664062-174.535156 151.273437-52.511719 4.007813-105.558594-13.511719-144.960938-48.519531-3.097656-2.75-7.839843-2.46875-10.589843.625-2.75 3.097656-2.46875 7.839844.625 10.589844 10.125 8.992187 21.035156 16.90625 32.554687 23.703124-22.582031 3.898438-39.820312 23.613282-39.820312 47.292969v56.261719c0 4.140625 3.355468 7.5 7.5 7.5h279.113281c4.144531 0 7.5-3.359375 7.5-7.5v-56.261719c0-23.640625-17.179687-43.328125-39.707031-47.273437 14.433594-8.546875 27.90625-18.882813 40.128906-30.898438 22.601562-22.21875 39.371094-48.640625 49.578125-77.472656 25.292969-5.015625 43.808594-27.1875 43.808594-53.472656v-28.410156c0-13.527344-4.867188-25.917969-13.011719-35.464844zm-163.542969 397.589844c13.015625 14.492187 21.941407 32.609375 26.753907 51.421875 1.929687 7.53125 3.140624 15.238281 3.621093 23h-30.894531v-30.890625c0-14.511719-11.804688-26.320313-26.316406-26.320313h-74.945313c-14.511719 0-26.320312 11.808594-26.320312 26.320313v30.890625h-30.894531c-.351563 0 2.199218-16.832031 2.527343-18.347656 2.339844-10.835938 6.117188-21.382813 11.121094-31.269532 4.890625-9.664062 10.984375-18.785156 18.4375-26.660156 15.523437 4.796875 31.546875 7.769532 47.835937 8.890625 26.054688 1.792969 52.425782-1.167969 77.390626-8.859375.570312.597656 1.128906 1.207032 1.683593 1.824219zm-196.367187 25.660156c0-18.199219 14.804687-33.003906 33-33.003906h20.929687c.078125.03125.160157.0625.238281.09375-.542968-.203125-4.542968 5.777344-4.84375 6.1875-10.421874 14.191406-18.023437 30.488281-22.542968 47.492187-2.402344 9.046876-4.457032 27.890626-4.460938 27.992188h-22.324218v-48.761719zm83.261718 48.761719v-30.886719c0-6.242187 5.078126-11.320312 11.324219-11.320312h74.941407c6.242187 0 11.320312 5.078125 11.320312 11.320312v30.886719zm147.847657-81.765625c18.199219 0 33.003906 14.804687 33.003906 33.003906v48.761719h-22.320313c-.007812-.105469-.015624-.210938-.023437-.3125-1.304687-23.28125-8.703125-46.203125-20.863281-66.070312-3.207032-5.234376-6.917969-10.460938-10.921875-15.238282.121093-.050781.242187-.097656.363281-.144531zm97.375-258.117187h-.003907c-.507812-1.378907-3.460937-8.753907-3.546874-8.957032v-71.371094h19.976562v86.207032c-5.019531-2.777344-10.539062-4.789063-16.425781-5.878906zm-3.550781-132.128907c0-5.507812 4.480468-9.988281 9.988281-9.988281 5.507812 0 9.988281 4.480469 9.988281 9.988281v36.800781h-19.976562zm32.988281 214.132813c0 16.074218-9.546875 30.03125-23.542969 36.183594 2.597656-10.171876 4.402344-20.585938 5.394531-31.167969 1.203125-12.800781 1.234375-25.757813-.058593-38.554688-1.050782-10.53125-2.945313-20.941406-5.703126-31.183593 4.839844 2.089843 9.261719 5.148437 12.972657 9.035156 6.933593 7.265625 10.9375 17.074218 10.9375 27.277344zm0 0"/></svg>